<svg width="306" height="144" viewBox="0 0 306 144" fill="none" xmlns="http://www.w3.org/2000/svg">
<g opacity="0.5" filter="url(#filter0_d_1_117)">
<path fill-rule="evenodd" clip-rule="evenodd" d="M119 54.7919C119 90.1006 119.013 91.6982 119.325 94.4182C119.504 95.9772 119.738 97.666 119.845 98.1712C120.815 102.774 122.769 106.195 125.801 108.604C128.56 110.796 133.013 112.211 137.976 112.471L140.075 112.582L140.031 101.076C140.007 94.7472 140.007 86.6035 140.031 82.9783L140.075 76.3872L142.493 79.0532C145.914 82.8259 145.982 82.9023 147.38 84.4763C148.072 85.2566 148.679 85.9326 148.727 85.9785C148.803 86.0505 154.598 92.5307 156.028 94.1428C156.305 94.4551 156.607 94.794 156.7 94.8959C156.792 94.9979 158.114 96.4717 159.637 98.1712C161.16 99.8707 162.579 101.449 162.792 101.679C163.004 101.908 164.025 103.053 165.06 104.222L166.943 106.348L177.061 106.352C186.019 106.355 187.731 106.294 187.053 105.993C186.983 105.963 186.36 105.299 185.668 104.518C184.975 103.737 184.333 103.016 184.24 102.914C184.148 102.813 183.609 102.212 183.043 101.578C176.133 93.842 172.609 89.9052 171.981 89.2194C171.889 89.1187 171.36 88.5179 170.806 87.8846C169.724 86.6491 168.748 85.5646 167.513 84.2273C166.843 83.5019 166.115 82.6835 163.585 79.8113C163.308 79.4968 162.648 78.7765 162.119 78.2106C161.591 77.6447 161.01 76.9941 160.829 76.7652C160.5 76.3498 160.5 76.3476 160.866 75.9421C161.068 75.7184 161.8 74.8978 162.493 74.1187C163.186 73.3393 163.828 72.621 163.921 72.5219C164.058 72.3753 165.779 70.4527 166.439 69.7078C166.721 69.3907 169.45 66.3658 169.63 66.1719C169.722 66.0722 170.289 65.4398 170.89 64.7665C171.49 64.0933 172.057 63.4609 172.149 63.361C172.241 63.2613 172.574 62.879 172.889 62.5116C173.204 62.1443 174.079 61.1672 174.835 60.3404C175.591 59.5137 176.505 58.499 176.866 58.0856C177.227 57.6722 177.563 57.2964 177.612 57.2505C177.661 57.2046 178.943 55.7765 180.461 54.077C181.979 52.3776 183.262 50.9495 183.311 50.9036C183.36 50.8577 183.966 50.1812 184.657 49.4004C185.349 48.6196 186.198 47.68 186.545 47.3126C186.891 46.9451 187.176 46.588 187.177 46.5192C187.178 46.4504 182.623 46.394 177.055 46.394H166.931L166.401 47.0203C165.683 47.8686 165.105 48.5207 164.367 49.3169C164.027 49.6843 162.238 51.6761 160.393 53.743C158.548 55.8099 156.999 57.5386 156.952 57.5845C156.904 57.6305 155.356 59.3592 153.512 61.4261C151.667 63.493 150.118 65.2217 150.068 65.2676C150.018 65.3135 149.041 66.4034 147.897 67.6894C146.753 68.9755 145.47 70.4036 145.045 70.8629C144.62 71.3222 143.706 72.3359 143.013 73.1154C142.321 73.895 141.614 74.6842 141.443 74.8691C141.272 75.0542 140.942 75.4498 140.709 75.7483C140.477 76.047 140.22 76.2911 140.138 76.2911C140.051 76.2911 140.006 64.0867 140.032 47.1456L140.075 18H129.537H119V54.7919ZM119.71 119.018C119.546 119.124 119.507 119.936 119.542 122.485L119.588 125.814H120.175H120.763L120.814 124.648C120.86 123.575 121.134 122.891 121.517 122.891C121.579 122.891 122.101 123.567 122.676 124.394L123.722 125.897H124.561C125.54 125.897 125.596 126.073 123.907 123.825C123.223 122.915 122.634 122.088 122.597 121.988C122.56 121.887 123.095 121.214 123.785 120.491C124.476 119.769 124.995 119.102 124.937 119.011C124.88 118.919 124.519 118.879 124.135 118.922C123.54 118.988 123.288 119.156 122.436 120.05C121.885 120.628 121.322 121.217 121.183 121.359C120.958 121.589 120.922 121.474 120.847 120.291C120.767 119.026 120.744 118.964 120.343 118.922C120.113 118.898 119.828 118.942 119.71 119.018ZM126.169 118.989C126.105 119.053 126.053 120.635 126.053 122.505V125.906L128.53 125.86L131.007 125.814V125.229V124.644L129.118 124.597L127.228 124.55V123.72V122.891H128.824H130.419V122.312V121.734L128.866 121.686L127.312 121.638V120.97V120.302L129.127 120.254L130.942 120.207L130.891 119.586L130.839 118.966L128.562 118.919C127.31 118.894 126.233 118.925 126.169 118.989ZM131.837 119.096C131.792 119.214 132.233 120.774 132.817 122.562L133.88 125.814H134.597H135.313L136.032 123.642C137.166 120.217 137.472 119.243 137.472 119.056C137.472 118.96 137.184 118.882 136.831 118.882C136.108 118.882 136.213 118.666 135.187 122.264C134.932 123.16 134.663 123.893 134.589 123.893C134.516 123.893 134.408 123.686 134.35 123.433C134.064 122.184 133.041 119.118 132.875 119.01C132.569 118.811 131.927 118.865 131.837 119.096ZM138.35 119.018C138.186 119.124 138.147 119.936 138.182 122.485L138.228 125.814H138.815H139.403V122.39V118.966L138.983 118.922C138.752 118.898 138.467 118.942 138.35 119.018ZM140.701 119.022C140.537 119.125 140.498 119.934 140.533 122.485L140.579 125.814H141.166H141.754L141.838 123.475L141.922 121.137L142.578 122.306C142.938 122.949 143.548 124.001 143.933 124.644C144.632 125.811 144.635 125.814 145.377 125.814H146.12L146.166 122.427C146.215 118.749 146.208 118.719 145.285 118.95C144.872 119.053 144.87 119.063 144.824 121.348L144.777 123.642L144.334 122.891C144.09 122.477 143.684 121.763 143.432 121.304C142.582 119.76 142.292 119.301 142.032 119.091C141.741 118.856 141.023 118.818 140.701 119.022ZM149.47 119.096C149.424 119.213 149.408 120.773 149.433 122.561L149.479 125.814L150.109 125.865L150.738 125.917V123.619C150.738 121.182 150.86 120.968 151.296 122.64C151.44 123.191 151.695 124.131 151.863 124.728L152.169 125.814L152.859 125.864C153.406 125.904 153.568 125.851 153.639 125.613C153.689 125.448 153.959 124.458 154.241 123.414C154.522 122.369 154.794 121.473 154.844 121.423C154.895 121.373 154.936 122.359 154.936 123.614V125.897H155.608H156.28V122.491C156.28 118.746 156.319 118.879 155.217 118.885C154.456 118.888 154.254 119.072 154.005 119.989C153.884 120.437 153.623 121.404 153.425 122.139C153.038 123.58 152.839 123.937 152.696 123.45C151.986 121.039 151.578 119.537 151.578 119.334C151.578 119.009 151.219 118.882 150.299 118.882C149.847 118.882 149.52 118.966 149.47 119.096ZM157.497 118.993C157.224 119.102 157.208 123.096 157.476 124.155C157.946 126.013 160.435 126.634 161.834 125.243C162.49 124.59 162.659 123.775 162.66 121.265L162.661 119.055L162.242 118.951C161.363 118.731 161.318 118.849 161.315 121.341C161.312 123.877 161.182 124.357 160.427 124.606C159.811 124.81 158.99 124.477 158.785 123.939C158.7 123.718 158.631 122.535 158.631 121.311C158.631 119.435 158.589 119.069 158.365 118.983C158.063 118.868 157.801 118.871 157.497 118.993ZM163.744 119.096C163.698 119.213 163.682 120.773 163.707 122.561L163.753 125.814H164.34H164.928L165.012 124.517C165.058 123.804 165.153 123.222 165.222 123.223C165.291 123.224 165.745 123.226 166.23 123.227C167.476 123.231 167.601 123.354 167.699 124.68L167.783 125.814L168.435 125.867L169.087 125.92L169.009 124.574C168.953 123.62 168.846 123.137 168.641 122.911C168.366 122.609 168.373 122.571 168.781 122.133C169.699 121.148 169.096 119.469 167.694 119.104C166.626 118.826 163.85 118.82 163.744 119.096ZM170.33 118.993C170.268 119.055 170.218 120.633 170.218 122.501V125.897H170.798H171.379L171.428 124.686L171.477 123.475L172.661 123.392C174.595 123.255 175.351 122.536 175.22 120.957C175.088 119.373 174.276 118.905 171.631 118.889C170.977 118.885 170.391 118.932 170.33 118.993ZM176.17 119.096C176.125 119.213 176.108 120.773 176.134 122.561L176.179 125.814H176.767H177.355L177.403 124.352L177.452 122.891H178.866H180.28L180.329 124.352L180.377 125.814H180.965H181.553L181.598 122.435L181.644 119.057L181.221 118.952C180.407 118.749 180.293 118.924 180.293 120.38V121.721H178.866H177.439V120.403C177.439 119.355 177.384 119.064 177.173 118.983C176.733 118.816 176.258 118.869 176.17 119.096ZM182.238 119.027C182.199 119.091 182.631 119.968 183.2 120.975C184.211 122.764 184.237 122.842 184.321 124.31L184.408 125.814H184.995H185.583L185.667 124.394C185.737 123.212 185.829 122.856 186.213 122.268C186.467 121.879 186.675 121.52 186.675 121.469C186.675 121.419 186.973 120.854 187.337 120.214L188 119.051L187.589 118.948C186.765 118.743 186.453 118.989 185.772 120.387C185.414 121.121 185.068 121.721 185.004 121.721C184.94 121.721 184.651 121.214 184.363 120.594C184.075 119.974 183.768 119.363 183.68 119.236C183.513 118.993 182.363 118.826 182.238 119.027ZM167.603 120.481C167.929 120.805 167.94 121.224 167.633 121.641C167.452 121.889 167.134 121.974 166.206 122.026L165.012 122.093V121.156V120.218H166.176C167.009 120.218 167.414 120.293 167.603 120.481ZM173.587 120.391C173.806 120.508 173.911 120.739 173.91 121.101C173.905 121.988 173.711 122.135 172.534 122.137L171.477 122.139L171.425 121.41C171.396 121.009 171.412 120.577 171.462 120.45C171.569 120.171 173.095 120.129 173.587 120.391ZM147.212 125.155V125.917L147.842 125.865C148.453 125.815 148.473 125.793 148.523 125.104L148.575 124.394H147.893H147.212V125.155Z" fill="white"/>
</g>
<defs>
<filter id="filter0_d_1_117" x="115" y="18" width="77" height="116" filterUnits="userSpaceOnUse" color-interpolation-filters="sRGB">
<feFlood flood-opacity="0" result="BackgroundImageFix"/>
<feColorMatrix in="SourceAlpha" type="matrix" values="0 0 0 0 0 0 0 0 0 0 0 0 0 0 0 0 0 0 127 0" result="hardAlpha"/>
<feOffset dy="4"/>
<feGaussianBlur stdDeviation="2"/>
<feComposite in2="hardAlpha" operator="out"/>
<feColorMatrix type="matrix" values="0 0 0 0 0 0 0 0 0 0 0 0 0 0 0 0 0 0 0.25 0"/>
<feBlend mode="normal" in2="BackgroundImageFix" result="effect1_dropShadow_1_117"/>
<feBlend mode="normal" in="SourceGraphic" in2="effect1_dropShadow_1_117" result="shape"/>
</filter>
</defs>
</svg>
