<svg width="306" height="144" viewBox="0 0 306 144" fill="none" xmlns="http://www.w3.org/2000/svg">
<g opacity="0.5">
<path fill-rule="evenodd" clip-rule="evenodd" d="M152.297 18.1294C152.297 18.2009 152.364 18.3197 152.447 18.3935C152.578 18.5107 152.76 18.5338 153.89 18.5759C154.601 18.6025 155.359 18.6557 155.575 18.6941C155.791 18.7325 156.167 18.7663 156.412 18.7691L156.858 18.7742V18.4318V18.0895L156.484 18.045C156.278 18.0206 155.252 18.0003 154.203 18C152.398 17.9994 152.297 18.0062 152.297 18.1294ZM146.112 18.2486C146.062 18.3052 145.96 18.3516 145.886 18.3516C145.704 18.3516 145.639 18.5873 145.757 18.8259C145.834 18.9845 145.892 19.0164 146.064 18.9974C146.18 18.9846 146.58 18.9588 146.952 18.94C147.325 18.9211 147.66 18.8761 147.697 18.84C147.734 18.8038 148.013 18.7742 148.316 18.7742C148.936 18.7742 149.09 18.6893 149.09 18.3466V18.1403L147.647 18.143C146.473 18.1451 146.187 18.1649 146.112 18.2486ZM143.888 18.5843C143.888 18.6348 143.994 18.7775 144.123 18.9013C144.302 19.0721 144.422 19.1264 144.622 19.1264H144.886V18.8094V18.4925H144.387C144.025 18.4925 143.888 18.5175 143.888 18.5843ZM139.976 19.373C139.325 19.5173 138.708 19.7282 137.68 20.1576C136.852 20.5037 136.025 20.7355 134.838 20.954C134.583 21.001 134.167 21.1451 133.912 21.2744C133.657 21.4037 133.24 21.5611 132.985 21.6241C132.731 21.6872 132.314 21.8484 132.059 21.9822C131.804 22.1161 131.051 22.4991 130.384 22.8333C127.964 24.0473 125.929 25.2499 124.016 26.5968C123.17 27.1925 122.87 27.3676 122.693 27.3676C122.269 27.3676 120.741 28.4685 119.268 29.8353C118.797 30.2716 118.06 30.913 117.629 31.2608C117.191 31.6141 116.788 32.0004 116.715 32.1365C116.617 32.3221 116.471 32.4329 116.1 32.6032C115.642 32.8134 115.598 32.8551 115.346 33.3109C115.199 33.5773 114.994 33.8437 114.889 33.9028C114.779 33.9653 114.644 34.1465 114.568 34.3342C114.49 34.5253 114.214 34.8923 113.894 35.2301C113.597 35.5449 113.177 36.0803 112.961 36.42C112.518 37.1189 112.121 37.4551 111.577 37.5946L111.226 37.6845L110.739 38.6717C110.428 39.3036 110.084 39.8745 109.783 40.2577C109.349 40.8095 109.097 41.2058 108.257 42.6526C107.543 43.8825 106.216 45.3475 105.194 46.0335C104.886 46.24 104.718 46.4143 104.596 46.6527C104.365 47.1069 104.087 47.8891 103.987 48.3692C103.904 48.7643 103.899 48.7709 103.332 49.1385C102.884 49.4293 102.725 49.5789 102.595 49.8319C102.209 50.5848 101.528 52.3752 101.134 53.6713L100.857 54.5821L101.137 55.086C101.291 55.3631 101.417 55.6377 101.417 55.6961C101.417 55.8623 100.75 56.7595 100.469 56.9714C100.26 57.1288 100.201 57.2332 100.133 57.5675C100.087 57.7904 99.9101 58.5909 99.7396 59.3463C99.3434 61.1018 98.9903 62.9277 98.6772 64.8405C97.8919 69.6384 97.829 71.3829 98.2859 75.6879C99.6866 88.8829 103.682 99.0205 110.668 107.103C112.647 109.393 117.203 113.669 120.18 116.031C121.878 117.378 123.848 118.69 125.804 119.776C126.285 120.043 126.835 120.359 127.025 120.479C127.304 120.655 127.448 120.698 127.761 120.698C128.121 120.698 128.172 120.676 128.433 120.416C128.599 120.25 128.782 120.134 128.879 120.134C129.126 120.134 131.08 120.957 131.213 121.116C131.277 121.193 131.352 121.439 131.38 121.663C131.495 122.576 131.76 122.828 133.038 123.238C133.717 123.456 134.106 123.539 134.573 123.566C135.077 123.596 135.212 123.627 135.267 123.729C135.401 123.976 135.887 124.08 137.225 124.145C138.252 124.195 138.7 124.252 139.47 124.428C140.752 124.723 141.167 124.824 141.929 125.027C142.378 125.147 142.764 125.199 143.22 125.202C143.633 125.204 143.966 125.245 144.13 125.312C144.272 125.371 144.781 125.517 145.261 125.637C146.167 125.863 147.619 126.005 148.983 126C149.729 125.997 150.319 125.822 150.362 125.591C150.438 125.186 150.654 125.187 151.054 125.593C151.354 125.899 151.381 125.91 151.789 125.91C152.172 125.91 152.231 125.889 152.391 125.701C152.489 125.586 152.591 125.361 152.618 125.201L152.668 124.911L152.999 124.955C153.915 125.078 154.148 125.08 154.193 124.965C154.231 124.867 154.448 124.853 155.924 124.853H157.612L157.93 125.176L158.247 125.498L158.782 125.452C159.371 125.4 160.08 125.392 160.752 125.428C161.093 125.447 161.22 125.425 161.327 125.329C161.439 125.229 161.599 125.206 162.178 125.206C162.845 125.206 162.901 125.194 163.057 125.029C163.208 124.871 163.281 124.853 163.771 124.853C164.357 124.853 165.222 124.667 165.671 124.445C165.821 124.371 166.164 124.29 166.432 124.266C167.023 124.214 167.325 124.056 167.499 123.707C167.629 123.446 167.633 123.445 168.069 123.445C168.424 123.445 168.646 123.388 169.222 123.151C169.613 122.989 170.039 122.767 170.167 122.659C170.506 122.37 170.734 122.27 171.495 122.075C172.169 121.901 172.473 121.78 172.82 121.543C172.918 121.477 173.143 121.4 173.319 121.373C173.495 121.347 173.8 121.235 173.996 121.127C174.506 120.843 175.399 120.465 176.094 120.237C176.424 120.129 176.885 119.915 177.119 119.761C177.554 119.475 178.205 119.163 178.682 119.011C178.829 118.964 178.982 118.865 179.023 118.791C179.106 118.636 179.45 118.444 179.643 118.444C179.715 118.444 179.931 118.286 180.123 118.093C180.394 117.821 180.576 117.71 180.939 117.594C181.714 117.347 182.132 117.122 182.281 116.87C182.457 116.576 182.615 116.458 183.866 115.681C184.434 115.328 185.064 114.919 185.266 114.773C185.467 114.626 185.716 114.485 185.818 114.459C185.92 114.434 186.003 114.39 186.003 114.362C186.003 114.234 186.549 113.791 186.814 113.704C187.172 113.587 187.525 113.157 187.91 112.37C188.139 111.903 188.215 111.81 188.446 111.718C188.593 111.659 188.759 111.611 188.813 111.611C188.868 111.611 189.066 111.397 189.253 111.136C189.651 110.58 189.666 110.567 189.998 110.512C190.21 110.477 190.279 110.417 190.425 110.143C190.825 109.388 191.981 108.494 192.903 108.224C193.172 108.146 193.278 108.046 193.74 107.44C194.309 106.694 194.359 106.534 194.167 106.081C194.068 105.847 194.071 105.834 194.256 105.705C194.539 105.508 195.12 105.229 195.453 105.131C195.638 105.076 195.787 104.974 195.86 104.853C195.923 104.747 196.12 104.522 196.298 104.351C196.598 104.063 196.621 104.015 196.621 103.684C196.621 103.37 196.671 103.248 197.031 102.686C197.428 102.066 197.451 102.044 197.759 101.997C197.993 101.961 198.147 101.878 198.347 101.681L198.617 101.414V100.735C198.617 100.321 198.654 99.9661 198.713 99.8281C198.9 99.3899 199.375 98.8846 199.787 98.6853C200.004 98.5803 200.37 98.3156 200.6 98.097C200.944 97.7697 201.058 97.5978 201.246 97.1227L201.474 96.5456L201.318 96.2422C201.232 96.0753 201.082 95.8352 200.984 95.7088L200.807 95.4789L200.968 95.0396C201.198 94.4125 201.507 93.8224 201.871 93.3149L202.187 92.8746H202.815C203.34 92.8746 203.474 92.851 203.629 92.7306C203.842 92.5642 203.96 92.2087 203.961 91.7278C203.961 91.5425 204.009 91.2771 204.068 91.1381C204.128 90.996 204.175 90.6717 204.175 90.3979C204.175 89.8003 204.345 89.4299 204.745 89.1564C204.899 89.0514 205.026 88.92 205.027 88.8645C205.033 88.6679 205.548 86.5582 205.794 85.7252C205.932 85.2603 206.07 84.7056 206.103 84.4926C206.135 84.2795 206.258 83.8353 206.376 83.5055C206.682 82.6536 206.814 81.822 206.87 80.4072C206.914 79.3105 206.936 79.1512 207.07 78.9632C207.675 78.1163 207.833 77.4084 207.77 75.8332C207.733 74.9074 207.744 74.6011 207.826 74.3495C207.902 74.1178 207.925 73.7485 207.911 72.976C207.901 72.3949 207.927 71.6342 207.968 71.2855C208.045 70.6266 207.984 68.9386 207.778 66.0027C207.674 64.5231 207.626 64.2312 207.344 63.3434C207.248 63.043 207.155 62.5834 207.136 62.3221C207.096 61.7648 206.611 59.4375 206.352 58.562C206.164 57.9278 205.601 56.5418 205.42 56.2689C205.362 56.1821 205.315 55.9812 205.315 55.8223C205.315 55.5141 205.236 55.314 205.022 55.0807C204.948 55.0009 204.794 54.6047 204.679 54.2002C204.563 53.7957 204.358 53.1929 204.222 52.8605C203.741 51.6854 202.04 48.4576 200.718 46.2097C199.654 44.4013 198.833 42.9357 198.351 41.9834C197.76 40.8169 197.422 40.254 196.997 39.7275C196.81 39.4961 196.516 39.0374 196.344 38.7081C195.612 37.3052 194.824 36.2536 194.223 35.8785C193.676 35.5371 193.369 35.1939 193.017 34.5328C192.712 33.9585 192.259 33.4912 191.769 33.2461C191.582 33.1524 191.384 33.0117 191.329 32.9335C191.273 32.8554 191.022 32.6604 190.771 32.5002C190.52 32.34 189.742 31.7657 189.043 31.2238C187.802 30.2629 184.598 28.0886 183.917 27.746C183.73 27.6518 183.109 27.4012 182.538 27.1893L181.5 26.8041H179.535H177.571L176.755 27.2313C175.248 28.0204 174.684 28.4056 173.88 29.195C172.711 30.343 171.326 32.2581 171.286 32.7812C171.275 32.9338 171.226 33.1311 171.178 33.2196C171.068 33.4238 171.045 33.67 170.997 35.2C170.969 36.0994 170.982 36.4905 171.044 36.6042C171.091 36.691 171.142 37.1201 171.157 37.5577C171.188 38.4679 171.357 39.0389 171.975 40.3281C172.618 41.6699 173.15 42.3829 173.73 42.6791C173.866 42.7491 173.962 42.8745 174.017 43.0549C174.119 43.3904 174.494 43.7598 174.86 43.8837C175.107 43.9674 175.154 44.0239 175.307 44.4163C175.413 44.6917 175.582 44.9564 175.759 45.1262C176.097 45.4507 176.96 45.8927 177.255 45.8927C177.371 45.8927 177.776 46.0154 178.154 46.1655C178.532 46.3154 179.082 46.4971 179.376 46.5693C179.761 46.6638 180 46.7726 180.231 46.9582C180.599 47.2535 181.02 47.4738 181.352 47.5446C181.6 47.5975 181.942 47.9414 181.942 48.1383C181.942 48.2072 182.166 48.4257 182.458 48.6423C182.742 48.8526 184.081 50.1067 185.433 51.4293C187.149 53.1073 187.967 53.8605 188.142 53.9216C188.322 53.9846 188.452 54.1082 188.605 54.3606C188.833 54.7369 189.612 55.5027 189.839 55.574C189.932 55.6032 189.991 55.707 190.022 55.8961C190.103 56.4003 190.346 56.9208 190.746 57.4492C191.212 58.0653 191.717 58.9042 191.887 59.3463C191.955 59.5207 192.121 59.7597 192.258 59.8776C192.459 60.051 192.532 60.192 192.641 60.6158C192.715 60.9038 192.871 61.3419 192.988 61.5892C193.136 61.9022 193.201 62.1487 193.202 62.4006C193.204 62.8526 193.388 63.2566 193.73 63.5607C193.986 63.7887 193.994 63.8088 193.986 64.2651C193.976 64.8922 194.025 65.2866 194.137 65.486C194.217 65.6271 194.268 65.9812 194.366 67.0592C194.377 67.1755 194.448 67.3973 194.523 67.5523C194.639 67.7893 194.658 67.9642 194.644 68.6534C194.631 69.2313 194.656 69.5426 194.726 69.71C194.807 69.9011 194.821 70.3444 194.797 71.9899C194.779 73.175 194.735 74.1299 194.69 74.2644C194.648 74.3919 194.633 74.5476 194.657 74.6104C194.682 74.6732 194.67 74.9651 194.631 75.259C194.592 75.553 194.509 76.2531 194.447 76.8149C194.164 79.3739 193.22 83.0411 192.152 85.7252C190.886 88.9087 188.145 93.7025 185.827 96.7872C183.359 100.071 180.086 103.08 175.706 106.094C171.13 109.242 166.159 111.637 161.775 112.806C158.054 113.798 153.403 114.241 149.126 114.011C144.595 113.766 141.878 113.315 139.568 112.422C139.048 112.221 138.633 112.104 138.44 112.104C138.249 112.104 138.017 112.04 137.822 111.932C137.651 111.838 137.19 111.678 136.798 111.577C134.851 111.075 133.128 110.35 131.283 109.259C130.867 109.013 130.363 108.759 130.164 108.695C129.937 108.622 129.768 108.517 129.713 108.416C129.603 108.214 129.278 108.019 129.051 108.019C128.776 108.019 125.958 105.97 123.864 104.247C120.733 101.672 118.643 99.3605 116.507 96.1125C114.745 93.4321 113.465 90.9437 112.046 87.4367C110.762 84.2634 110.041 81.5345 109.545 77.9771C109.154 75.1689 109.16 74.3422 109.614 68.2567C109.8 65.7549 110.095 64.1404 110.856 61.4594C112.415 55.9667 116.129 48.9493 119.615 44.9102C121.75 42.4368 124.024 40.5907 127.594 38.435C129.47 37.3018 131.11 36.0967 132.613 34.7473C133.099 34.3107 133.568 33.8963 133.656 33.8263C133.936 33.6014 139.105 31.8564 142.748 30.757C144.854 30.1215 146.713 29.7312 148.52 29.545C148.971 29.4986 149.37 29.4334 149.407 29.4002C149.514 29.3048 150.903 29.331 151.763 29.4447C152.194 29.5017 152.883 29.5504 153.295 29.5529C153.706 29.5553 154.187 29.5875 154.364 29.6242C154.54 29.6611 154.939 29.708 155.249 29.7288C155.56 29.7494 155.862 29.805 155.919 29.8524C156.021 29.9354 156.213 29.9377 158.436 29.8818C158.852 29.8714 159.012 29.8953 159.113 29.9825C159.186 30.0454 159.366 30.1351 159.513 30.1819C159.66 30.2286 159.814 30.3277 159.854 30.4021C159.919 30.5221 160.01 30.5373 160.667 30.5373C161.074 30.5373 161.566 30.5011 161.76 30.4569C162.19 30.3587 162.335 30.3918 162.87 30.7106C163.248 30.9357 163.339 30.9599 163.81 30.9599C164.097 30.9599 164.352 30.9282 164.376 30.8895C164.449 30.7731 164.809 30.81 164.934 30.9469C164.998 31.0172 165.086 31.1678 165.128 31.2815C165.175 31.4066 165.347 31.5785 165.565 31.7171C165.854 31.9015 165.997 31.9461 166.299 31.9461C166.685 31.9461 166.828 31.8622 166.864 31.615C166.874 31.5451 167.055 31.3925 167.268 31.2747L167.654 31.0612L167.675 30.6575C167.693 30.3188 167.676 30.2477 167.568 30.216C167.498 30.1952 167.321 30.1163 167.176 30.0407C166.856 29.8737 166.532 29.8649 166.298 30.0168C166.13 30.1255 166.112 30.1212 165.871 29.9115C165.545 29.6288 165.137 29.4254 164.785 29.3697C164.55 29.3325 164.422 29.2356 163.99 28.7691C163.56 28.304 163.439 28.2129 163.255 28.2129C163.088 28.2129 162.964 28.1394 162.743 27.9103C162.316 27.4666 162.272 27.4435 161.65 27.3355C161.337 27.2811 160.864 27.1393 160.599 27.0204C160.044 26.7719 159.723 26.7511 158.989 26.9161C158.578 27.0085 158.429 27.0134 158.138 26.9443C157.702 26.8409 157.012 26.409 156.759 26.0809C156.597 25.8708 156.518 25.8307 156.209 25.8014C155.977 25.7794 155.797 25.7161 155.704 25.6247C155.514 25.4364 155.587 25.2082 155.856 25.1497C155.968 25.1254 156.117 25.0422 156.188 24.9646C156.354 24.783 156.279 24.6549 155.841 24.374C155.58 24.2064 155.503 24.1118 155.47 23.9162C155.381 23.382 155.089 22.8166 154.613 22.255L154.379 21.9791L153.391 21.9264C150.985 21.798 150.566 21.7927 149.957 21.8833C149.38 21.9688 149.027 21.9822 148.235 21.9481C147.938 21.9352 147.224 21.988 145.634 22.1405C145.206 22.1815 144.898 22.2528 144.709 22.3547C144.526 22.4528 144.299 22.5074 144.073 22.5074C143.641 22.5074 142.834 22.6394 142.641 22.7416C142.563 22.7833 142.338 22.8416 142.142 22.8712C141.946 22.9008 141.592 22.9536 141.356 22.9886C141.119 23.0235 140.83 23.1 140.714 23.1586C140.438 23.2979 139.83 23.4231 139.429 23.4231C139.215 23.4231 138.968 23.4938 138.679 23.6382C138.441 23.7566 137.921 23.9611 137.523 24.0928C136.849 24.3156 136.753 24.3296 136.156 24.2924C135.523 24.2529 135.509 24.2554 135.033 24.5069C134.759 24.6515 134.45 24.7614 134.316 24.7614C134.146 24.7614 134.023 24.8215 133.872 24.9799C133.757 25.1001 133.463 25.3401 133.219 25.5133C132.856 25.7706 132.69 25.8401 132.309 25.8934C132.022 25.9336 131.74 26.0256 131.577 26.1325C131.43 26.2281 131.198 26.344 131.061 26.3901C130.924 26.4362 130.706 26.5799 130.577 26.7094C130.332 26.9553 130.154 26.9976 129.909 26.8683C129.767 26.7932 129.768 26.7869 129.967 26.5789C130.227 26.3069 131.042 25.7596 131.606 25.4782C131.847 25.358 132.104 25.186 132.176 25.0959C132.249 25.0058 132.414 24.8893 132.543 24.8371C132.672 24.7847 132.904 24.6513 133.059 24.5404C133.214 24.4295 133.402 24.3388 133.478 24.3388C133.717 24.3388 134.043 23.9945 134.31 23.4595L134.568 22.9429L135.057 22.7875C135.572 22.6239 135.652 22.626 136.513 22.8269C136.787 22.8909 137.236 22.9482 137.51 22.9543L138.009 22.9653L138.03 22.419C138.056 21.7453 138.154 21.6505 138.81 21.67C139.304 21.6846 139.399 21.6444 139.399 21.4201C139.399 21.1965 139.244 21.0879 138.864 21.0455C138.566 21.0124 138.525 21.0286 138.298 21.2655C138.164 21.4062 138.005 21.5213 137.944 21.5213C137.814 21.5213 137.261 21.31 137.261 21.2602C137.261 21.2412 137.361 21.1337 137.482 21.0212C137.649 20.8675 137.773 20.8169 137.984 20.8169C138.294 20.8169 138.72 20.6299 138.929 20.4017C139.037 20.2835 139.148 20.2534 139.477 20.2534C139.704 20.2534 139.909 20.2217 139.933 20.183C139.958 20.1442 140.048 20.1125 140.135 20.1125C140.221 20.1125 140.411 20.0491 140.558 19.9717C140.704 19.8942 140.934 19.8308 141.068 19.8308C141.42 19.8308 141.709 19.4886 141.442 19.3874C141.18 19.2881 140.395 19.2804 139.976 19.373ZM144.248 19.5912C143.827 19.7029 143.593 19.863 143.647 20.0019C143.702 20.1442 144.156 20.3238 144.461 20.3238H144.743V19.9012C144.743 19.6688 144.719 19.4807 144.69 19.4832C144.661 19.4858 144.461 19.5344 144.248 19.5912ZM159.227 23.5662C159.094 23.619 159.067 23.6839 159.067 23.9473C159.067 24.2225 159.093 24.278 159.263 24.3644C159.648 24.5603 160.024 24.6203 160.581 24.5749C161.086 24.5337 161.133 24.5168 161.133 24.3771C161.133 24.1933 160.86 23.9824 160.257 23.7003C159.807 23.49 159.515 23.4519 159.227 23.5662ZM156.697 24.4855C156.617 24.5722 156.573 24.734 156.573 24.9375V25.2545H156.989C157.405 25.2545 157.406 25.2551 157.952 25.7475C158.377 26.1306 158.548 26.2406 158.716 26.2406C158.895 26.2406 158.949 26.1989 159.035 25.9963C159.139 25.7506 159.171 25.1373 159.095 24.8574C159.018 24.5726 158.234 24.337 157.392 24.3451C156.926 24.3496 156.799 24.3751 156.697 24.4855ZM159.423 25.497C159.423 25.8862 159.446 25.9665 159.582 26.0605C159.814 26.2214 160.126 26.1945 160.396 25.9905C160.593 25.8424 160.635 25.7638 160.635 25.5436C160.635 25.1507 160.476 25.0432 159.899 25.0432H159.423V25.497ZM162.085 25.784C162.02 25.9516 162.195 26.5346 162.385 26.7802C162.488 26.9137 162.692 27.0511 162.896 27.1234C163.083 27.1898 163.407 27.323 163.616 27.4197C164.031 27.6111 164.357 27.6064 164.668 27.4044C164.8 27.3191 164.839 27.2313 164.839 27.0188C164.839 26.7078 164.695 26.5224 164.453 26.5224C164.062 26.5224 163.094 26.0809 162.852 25.7923C162.723 25.6387 162.144 25.6324 162.085 25.784ZM143.204 26.9155C143.311 27.1921 143.24 27.337 142.854 27.6318C142.549 27.8646 142.401 27.9311 142.189 27.9311C141.698 27.9311 141.461 27.419 141.826 27.1451C142.243 26.8318 143.115 26.6865 143.204 26.9155ZM129.599 27.7726C129.422 28.1938 129.074 28.3798 128.292 28.4714C127.963 28.5099 127.942 28.5013 127.724 28.2404C127.482 27.9505 127.437 27.7902 127.597 27.7902C127.652 27.7902 127.772 27.7279 127.864 27.6517C128.01 27.5316 128.144 27.5129 128.871 27.5108L129.709 27.5085L129.599 27.7726ZM168.806 30.6547C168.715 30.7442 168.759 31.2815 168.869 31.4373C168.963 31.5692 169.047 31.5939 169.404 31.5939H169.827V31.2468C169.827 30.9557 169.797 30.8762 169.639 30.7538C169.456 30.6114 168.915 30.5471 168.806 30.6547ZM165.872 56.5304C165.087 56.6116 164.503 56.7828 163.734 57.1578C162.46 57.7792 161.532 58.6984 160.918 59.945C160.389 61.0203 160.315 61.3619 160.318 62.7273C160.321 63.8092 160.335 63.931 160.522 64.4883C160.881 65.5604 161.361 66.3411 162.105 67.0663C163.244 68.175 164.583 68.7536 166.193 68.8324C167.505 68.8967 168.625 68.6217 169.787 67.9505C170.349 67.6261 171.322 66.6939 171.726 66.0929C173.001 64.1979 173.09 61.6388 171.953 59.6281C170.774 57.5445 168.292 56.28 165.872 56.5304ZM142.677 62.6217V68.6441H145.171H147.665V67.7636V66.8832H146.133H144.601V61.7412V56.5993H143.639H142.677V62.6217ZM134.884 56.7231C134.701 57.0163 129.789 68.5413 129.831 68.5808C129.903 68.6498 131.753 68.688 131.82 68.6218C131.849 68.5936 132.164 67.85 132.52 66.9696L133.168 65.3687L135.31 65.3501L137.453 65.3315L138.15 66.9526L138.847 68.5737H139.871C140.434 68.5737 140.895 68.5611 140.895 68.5458C140.895 68.5305 139.777 65.86 138.41 62.6115L135.924 56.7049L135.423 56.6843C135.147 56.673 134.905 56.6905 134.884 56.7231ZM149.589 62.6921V68.7145L151.246 68.7141C153.186 68.7136 153.996 68.6159 154.927 68.2704C155.839 67.9317 156.307 67.634 156.998 66.9536C157.892 66.0734 158.314 65.2863 158.583 63.9987C158.844 62.7539 158.687 61.0973 158.205 60.0144C157.683 58.842 156.671 57.8374 155.466 57.2976C154.421 56.8292 153.322 56.6711 151.103 56.6702L149.589 56.6697V62.6921ZM167.54 58.4685C168.265 58.6375 168.938 59.0246 169.549 59.625C170.395 60.4563 170.825 61.4635 170.825 62.6143C170.825 63.7908 170.411 64.7629 169.545 65.6184C168.67 66.484 167.716 66.881 166.514 66.881C165.292 66.881 164.359 66.4864 163.446 65.5834C162.567 64.7135 162.202 63.8458 162.202 62.6217C162.202 61.8886 162.329 61.3343 162.64 60.711C163.168 59.6502 164.306 58.7472 165.465 58.4696C166.011 58.3386 166.98 58.3381 167.54 58.4685ZM153.462 58.6044C154.552 58.7965 155.534 59.4067 156.094 60.2388C156.611 61.0084 156.745 61.4734 156.748 62.516C156.752 63.5915 156.586 64.1755 156.057 64.9577C155.199 66.2255 153.867 66.8733 152.101 66.8807L151.513 66.8832V62.6921V58.5011L152.208 58.5035C152.59 58.5049 153.154 58.5503 153.462 58.6044ZM136.065 61.863C136.445 62.7804 136.747 63.541 136.734 63.5533C136.722 63.5656 136.085 63.567 135.318 63.5565L133.925 63.5374L134.613 61.8646C134.992 60.9446 135.317 60.1926 135.337 60.1935C135.357 60.1944 135.684 60.9457 136.065 61.863ZM119.339 72.341C116.876 72.8793 115.079 74.6253 114.483 77.0614C114.305 77.7908 114.319 79.0751 114.514 79.8584C115.057 82.0346 116.724 83.7389 118.926 84.3684C119.661 84.5785 121.358 84.5951 122.082 84.3993C122.529 84.2787 123.98 83.6139 124.24 83.4111C124.354 83.322 124.364 83.1858 124.347 81.9946L124.327 80.6766L124.078 81.0079C123.597 81.647 122.621 82.2552 121.722 82.4759C121.139 82.619 120.042 82.6241 119.517 82.4862C117.423 81.9359 115.985 79.84 116.305 77.8025C116.533 76.3522 117.339 75.2032 118.565 74.5832C119.351 74.1852 119.709 74.1023 120.622 74.1072C121.284 74.1108 121.48 74.1394 121.886 74.2919C122.612 74.5649 123.12 74.891 123.772 75.5038L124.363 76.0593L124.328 75.6447C124.309 75.4166 124.273 74.823 124.249 74.3256L124.205 73.4211L123.783 73.1515C123.221 72.7922 122.455 72.4845 121.783 72.348C121.124 72.2142 119.935 72.2108 119.339 72.341ZM130.916 72.3414C128.903 72.7384 127.099 74.2368 126.356 76.1292C125.735 77.7104 125.798 79.5171 126.528 81.0716C127.141 82.3756 128.416 83.5721 129.767 84.1116C130.655 84.466 131.027 84.5281 132.237 84.5236C133.285 84.5197 133.427 84.5034 133.983 84.3237C136.044 83.6577 137.469 82.2491 138.158 80.1959C138.344 79.639 138.359 79.5159 138.362 78.4349C138.366 77.0977 138.295 76.7596 137.791 75.7231C136.922 73.9346 135.318 72.7104 133.353 72.336C132.716 72.2146 131.547 72.2172 130.916 72.3414ZM162.247 72.3475C161.062 72.609 160.128 73.1005 159.261 73.9188C158.603 74.5394 158.23 75.0529 157.855 75.8556C157.44 76.7439 157.32 77.3254 157.325 78.4349C157.329 79.5588 157.44 80.0666 157.89 81.0151C158.267 81.8102 158.607 82.2696 159.298 82.9173C160.56 84.1002 162.048 84.6271 163.895 84.5452C166.955 84.4095 169.381 82.137 169.753 79.0578C169.894 77.8926 169.69 76.7968 169.119 75.6526C168.343 74.0957 167.077 73.0342 165.338 72.4808C164.822 72.3168 164.584 72.2845 163.734 72.2637C163.019 72.2463 162.598 72.27 162.247 72.3475ZM140.396 78.3997V84.3517H141.394H142.392V81.9322V79.5127L143.188 79.4649C144.516 79.3851 145.216 79.1346 145.926 78.4854C146.725 77.7539 147.062 76.8602 147.005 75.6174C146.953 74.4513 146.556 73.6767 145.722 73.1103C144.939 72.5781 144.198 72.4477 141.959 72.4477H140.396V78.3997ZM149.233 78.3922V84.3517H150.23H151.228V81.9324V79.5131L151.994 79.469C153.412 79.3877 154.243 79.0576 154.953 78.2941C155.56 77.6415 155.858 76.8304 155.859 75.8259C155.862 74.1688 155.026 73.0522 153.456 72.6135C153.14 72.5251 152.606 72.491 151.139 72.4657L149.233 72.4327V78.3922ZM171.823 78.3997V84.3517H174.352H176.882V83.4712V82.5908H175.314H173.747V77.5192V72.4477H172.785H171.823V78.3997ZM183.044 72.5219C183.016 72.566 181.844 75.222 180.439 78.4241L177.885 84.246L178.328 84.2906C178.571 84.3151 179.043 84.3383 179.376 84.3421L179.982 84.349L180.635 82.7479L181.287 81.1468L183.485 81.1302L185.683 81.1137L186.363 82.6799L187.043 84.246L188.091 84.2655C188.667 84.2763 189.139 84.2763 189.139 84.2655C189.139 84.2548 188.004 81.5993 186.617 78.3645L184.096 72.4829L183.595 72.4624C183.276 72.4493 183.076 72.471 183.044 72.5219ZM133.573 74.298C134.275 74.5531 134.795 74.8887 135.291 75.4065C135.809 75.9481 136.216 76.6783 136.376 77.3511C136.533 78.0122 136.481 79.1481 136.265 79.7537C135.847 80.9292 134.797 81.9666 133.607 82.3815C132.989 82.5967 131.767 82.6513 131.136 82.4916C129.901 82.1787 128.931 81.4105 128.319 80.2601C127.958 79.5796 127.832 78.9721 127.876 78.118C127.934 76.9736 128.308 76.1443 129.132 75.3302C129.686 74.7827 130.343 74.4016 131.07 74.207C131.802 74.0108 132.891 74.0504 133.573 74.298ZM164.842 74.2645C166.192 74.7362 167.211 75.7098 167.617 76.9174C168.163 78.538 167.768 80.1844 166.546 81.3911C165.732 82.1943 164.746 82.5908 163.564 82.5908C162.299 82.5908 161.369 82.2099 160.49 81.331C159.873 80.7146 159.555 80.1699 159.35 79.3791C158.922 77.7253 159.56 75.9432 160.94 74.9387C161.518 74.518 161.822 74.3691 162.441 74.2029C163.097 74.0268 164.247 74.0563 164.842 74.2645ZM143.986 74.3786C144.494 74.4967 144.727 74.6577 144.942 75.038C145.277 75.6295 145.208 76.5368 144.795 77.0027C144.42 77.4249 144.099 77.5397 143.193 77.5756L142.392 77.6074V75.9433V74.2791L142.98 74.2802C143.303 74.2808 143.756 74.3251 143.986 74.3786ZM152.701 74.3569C152.95 74.3996 153.257 74.5039 153.384 74.5885C154.067 75.0431 154.202 76.3079 153.64 76.9824C153.276 77.4182 152.948 77.5392 152.03 77.5756L151.228 77.6074V75.9433V74.2791H151.739C152.02 74.2791 152.453 74.3141 152.701 74.3569ZM184.24 77.6083C184.622 78.5087 184.935 79.2691 184.935 79.298C184.935 79.327 184.293 79.3506 183.509 79.3506C182.725 79.3506 182.084 79.3282 182.084 79.3009C182.084 79.2081 183.467 75.9696 183.506 75.9704C183.527 75.9707 183.858 76.7078 184.24 77.6083ZM202.353 83.9702C202.417 84.2238 202.322 84.9923 202.205 85.1598C202.152 85.2362 202.108 85.4435 202.108 85.6206C202.108 85.8669 201.981 86.2309 201.566 87.1721C201.267 87.8485 200.608 89.4162 200.102 90.6559C199.174 92.9254 198.381 94.5263 197.095 96.7271C196.797 97.2383 196.48 97.8031 196.392 97.9824C196.274 98.2221 196.181 98.3186 196.04 98.3465C195.887 98.3767 195.712 98.5878 195.183 99.3803C194.818 99.9281 194.283 100.65 193.995 100.984C193.707 101.319 193.16 102.016 192.778 102.534C192.396 103.052 191.954 103.571 191.794 103.687C191.569 103.851 191.512 103.933 191.54 104.054C191.569 104.18 191.413 104.364 190.697 105.04C190.214 105.497 189.16 106.504 188.355 107.279C187.549 108.054 186.298 109.162 185.574 109.742C184.279 110.778 182.804 112.007 181.937 112.772C181.694 112.986 181.46 113.161 181.416 113.161C181.166 113.161 180.391 113.626 180.007 114.006C179.635 114.373 179.481 114.467 178.842 114.714C178.437 114.87 177.822 115.176 177.476 115.393C177.13 115.611 176.778 115.784 176.693 115.779C176.602 115.773 176.494 115.84 176.425 115.943C176.259 116.195 175.985 116.351 175.609 116.409C175.017 116.501 174.582 116.707 174.19 117.081C173.928 117.331 173.737 117.452 173.558 117.481C173.417 117.503 173.246 117.571 173.179 117.631C173.111 117.692 172.867 117.789 172.635 117.849C172.404 117.908 172.01 118.05 171.761 118.165C171.231 118.408 171.11 118.422 171.11 118.239C171.11 118.153 171.232 118.035 171.448 117.911C171.635 117.805 171.899 117.631 172.036 117.525C172.174 117.42 172.494 117.281 172.749 117.217C173.244 117.093 173.587 116.91 175.101 115.964C175.63 115.633 176.796 114.944 177.693 114.432C179.565 113.366 180.819 112.563 182.074 111.631C182.558 111.272 183.094 110.916 183.265 110.841C183.777 110.617 184.218 110.287 185.006 109.536C185.417 109.144 186.011 108.603 186.324 108.333C186.638 108.064 187.377 107.384 187.966 106.822C188.556 106.26 189.375 105.483 189.786 105.096C190.355 104.559 190.597 104.273 190.798 103.898C190.982 103.554 191.159 103.335 191.384 103.174C191.56 103.046 191.838 102.777 192 102.575C192.275 102.233 192.702 101.453 192.702 101.292C192.702 101.253 192.846 101.132 193.021 101.022C193.444 100.759 193.593 100.573 194.203 99.5535C194.487 99.0796 195.062 98.1675 195.481 97.5266C195.9 96.8857 196.475 95.9814 196.757 95.517C197.04 95.0526 197.377 94.5771 197.506 94.4604C197.786 94.2074 197.985 93.8365 198.15 93.2621C198.217 93.0296 198.414 92.598 198.588 92.3029C198.964 91.664 199.388 90.7159 199.623 89.9867C199.716 89.6962 199.899 89.2841 200.029 89.071C200.475 88.3408 200.912 87.3618 201.047 86.7902C201.247 85.9435 201.893 84.1289 202.06 83.9467C202.246 83.743 202.296 83.7471 202.353 83.9702ZM170.422 118.399C170.311 118.53 170.107 118.693 169.97 118.76C169.639 118.924 168.844 119.148 168.595 119.148H168.396L168.594 118.903C168.854 118.58 169.844 118.19 170.458 118.168L170.625 118.162L170.422 118.399Z" fill="white"/>
</g>
</svg>
