<svg width="306" height="144" viewBox="0 0 306 144" fill="none" xmlns="http://www.w3.org/2000/svg">
<g opacity="0.5" filter="url(#filter0_d_1_126)">
<path fill-rule="evenodd" clip-rule="evenodd" d="M146.46 12.4733C122.924 15.9217 105.74 37.6275 108.242 60.746C109.377 71.2333 113.144 79.3328 120.393 86.8707C126.792 93.5257 134.728 98.0457 143.437 99.9965C148.161 101.054 158.85 101.065 163.213 100.015C176.644 96.7858 187.274 88.5109 193.391 76.5232C194.521 74.3088 196.014 70.6744 196.708 68.4467C197.861 64.7477 197.973 63.7153 197.999 56.5504C198.031 47.4568 197.359 44.3342 193.828 37.1669C185.255 19.767 165.822 9.63597 146.46 12.4733ZM150.533 15.7828C146.317 19.8926 146.83 23.1605 152.178 26.2467C158.758 30.043 159.778 32.5837 157.665 39.9046C155.569 47.1646 158.362 50.6661 168.378 53.335C176.689 55.5498 179.895 57.7452 180.241 61.4599C180.396 63.1204 180.362 63.2303 180.05 62.0885C179.458 59.9203 178.682 58.7536 177.042 57.5657C175.082 56.1465 173.636 55.6213 168.493 54.4606C161.387 52.8569 157.153 50.4261 155.253 46.8586C154.09 44.678 154.295 40.8502 155.75 37.5269C157.956 32.4927 157.16 29.8427 152.749 27.525C148.818 25.4593 147.27 24.1583 146.93 22.6349C146.436 20.4215 147.122 18.4984 149.197 16.2831L151.127 14.222L149.262 14.9863C146.891 15.9577 146.314 16.5369 145.512 18.754L144.86 20.5525L144.84 18.694C144.804 15.439 146.54 13.9442 150.42 13.8897L152.505 13.8606L150.533 15.7828ZM166.519 15.3065C169.77 16.3362 177.166 19.8317 177.166 20.3384C177.166 20.5184 176.354 20.793 175.361 20.9494C171.908 21.4931 169.616 24.2802 169.729 27.7983C169.765 28.9285 169.872 29.2862 169.977 28.629C170.607 24.6909 171.588 23.5524 174.353 23.5524C177.22 23.5524 178.267 24.8317 178 28.0087C177.543 33.4227 172.703 36.3773 167.274 34.5552C164.352 33.575 161.812 31.531 161.203 29.6706C160.42 27.2786 160.029 26.8988 157.996 26.5605C155.315 26.1147 153.431 24.7777 152.79 22.8656C152.119 20.8627 152.493 18.4102 153.618 17.4447C154.749 16.4742 156.572 15.5853 156.857 15.8659C156.988 15.9947 156.433 16.4368 155.625 16.8485C153.647 17.8555 153.069 19.4477 153.94 21.4977C154.312 22.3741 154.772 23.0908 154.963 23.0908C155.155 23.0908 156.096 22.2361 157.057 21.1913C158.515 19.6046 158.857 18.8362 159.129 16.5309L159.454 13.7711L161.531 14.0775C162.673 14.246 164.918 14.7993 166.519 15.3065ZM141.994 16.2836C141.496 17.3621 141.085 18.9825 141.079 19.8833C141.066 22.07 140.424 22.658 138.737 22.0308C137.593 21.6057 137.222 21.7045 135.926 22.7775C134.239 24.1754 133.464 24.3102 132.652 23.347C131.89 22.4424 132.224 20.511 133.111 20.7007C133.653 20.817 133.68 20.7265 133.236 20.2821C132.411 19.4546 131.224 20.5636 131.224 22.1623C131.224 23.7245 132.859 25.8599 134.055 25.8599C134.543 25.8599 135.684 25.5119 136.589 25.0869C138.129 24.3642 138.292 24.3642 139.103 25.0869C140.309 26.1617 141.197 26.0542 142.405 24.6872C143.559 23.3793 144.395 23.5168 144.013 24.9521C143.612 26.464 142.189 26.878 135.948 27.2984C128.497 27.8006 125.017 28.4347 122.333 29.78C118.001 31.9514 116.249 35.175 116.234 41.0048C116.223 45.0915 115.663 46.8693 114.522 46.4382C114.133 46.2914 113.956 46.3768 114.117 46.633C114.585 47.3788 116.156 47.1522 116.636 46.2693C116.881 45.8184 117.312 43.8201 117.593 41.8291C118.589 34.7832 120.829 31.6745 125.599 30.7192L127.24 30.3906L125.08 31.7649C122.091 33.6677 120.774 36.4211 120.801 40.7113C120.839 46.6625 124.175 50.787 129.239 51.1438C131.471 51.3011 132.147 51.1632 133.217 50.3315C133.926 49.7805 134.506 49.1011 134.506 48.8214C134.506 48.5418 133.967 48.8118 133.308 49.4214C130.919 51.6302 127.174 50.529 125.375 47.0894C123.735 43.9507 124.186 39.0439 126.409 35.8701C129.192 31.896 130.502 32.525 133.807 39.4223C137.408 46.9371 138.171 47.2422 140.897 42.2532L142.367 39.5649L142.679 42.2888C143.473 49.2142 140.536 59.0328 137.193 60.6269C135.465 61.4507 133.291 60.871 132.838 59.4653C132.379 58.0438 133.292 57.4319 134.836 58.1246C136.126 58.7033 136.127 58.7024 135.245 57.7429C134.182 56.5868 132.32 56.4968 131.144 57.5449C129.925 58.6313 129.986 61.5979 131.245 62.4665C132.085 63.0457 132.109 63.1634 131.441 63.4158C130.361 63.8238 129.269 63.7758 126.546 63.2012C123.621 62.5837 121.38 60.8475 121.38 59.1994C121.38 56.3819 124.954 55.2041 126.268 57.5888C126.927 58.785 126.969 58.7984 126.987 57.8195C127.031 55.3435 123.428 54.0965 120.536 55.5881C119.066 56.3459 116.58 58.8501 115.785 60.374C115.32 61.2661 114.99 61.3833 113.645 61.135C112.344 60.8946 111.845 61.0496 110.89 61.9897L109.723 63.138L109.394 60.1123C107.638 43.9682 116.913 26.956 131.997 18.6511C134.301 17.3829 141.767 14.396 142.804 14.3281C142.856 14.3249 142.491 15.205 141.994 16.2836ZM180.447 23.0908C180.963 23.5985 181.378 24.3775 181.371 24.8215C181.357 25.5719 181.321 25.5696 180.861 24.7901C180.588 24.3286 179.697 23.5505 178.882 23.0613C177.552 22.2624 177.508 22.1711 178.455 22.1697C179.035 22.1688 179.931 22.5832 180.447 23.0908ZM150.21 28.2976C151.499 28.9326 152.971 29.9064 153.481 30.4621C154.864 31.9685 154.707 34.6102 153.12 36.5305C148.353 42.2975 148.212 43.6604 151.856 48.7979C153.627 51.2947 154.387 52.8389 154.551 54.271C154.77 56.1825 154.675 56.3681 152.26 58.7181C150.875 60.0666 146.511 63.3184 142.562 65.944C133.568 71.9228 130.193 74.678 128.615 77.3294C126.495 80.8895 127.317 82.6515 132.631 85.9454L135.209 87.5431V82.8925C135.209 78.6244 135.321 78.0429 136.567 75.8286C137.703 73.8118 140.254 70.7829 139.589 72.2417C139.474 72.4956 139 73.5243 138.537 74.528C135.735 80.6006 136.782 88.0831 141.235 93.8173C142.172 95.0228 142.795 96.0095 142.621 96.0095C142.446 96.0095 140.602 94.2945 138.522 92.1988C136.259 89.9185 133.376 87.5939 131.343 86.4101C127.747 84.3162 126.537 82.7835 126.537 80.3228C126.537 76.5052 130.088 72.9649 141.493 65.4128C149.666 60.0006 153.028 57.1489 153.522 55.2101C153.862 53.8801 153.002 52.0428 150.291 48.2999C147.325 44.2059 147.357 40.3758 150.388 36.5997C153.894 32.2343 153.954 31.0694 150.762 29.4915C148.187 28.2187 145.757 26.405 145.757 25.7561C145.757 25.4709 146.232 25.6661 146.812 26.1899C147.391 26.7142 148.921 27.6621 150.21 28.2976ZM184.332 28.173C188.408 31.3288 183.852 37.6206 176.513 38.9737L174.689 39.3097L176.406 40.703C178.438 42.3515 179.525 44.2437 179.467 46.0279C179.427 47.2532 179.401 47.2366 178.962 45.7049C178.235 43.1652 175.907 41.141 171.189 38.946C166.638 36.8291 165.651 36.1613 168.61 37.2011C172.704 38.6391 177.895 37.3709 181.664 34.012C183.947 31.9768 184.469 30.2941 183.261 28.8611C182.505 27.9639 180.728 27.9709 179.967 28.8736C179.497 29.4306 179.49 29.8363 179.935 30.7972C180.436 31.8799 180.418 31.9486 179.77 31.4193C178.715 30.5576 178.875 28.7956 180.083 27.963C181.493 26.9902 182.895 27.0598 184.332 28.173ZM145.486 28.6091C147.961 29.1745 149.71 30.5327 149.891 32.0308C149.998 32.9196 149.441 34.0485 147.894 36.0741C146.714 37.6197 145.619 39.3928 145.461 40.0144C144.969 41.9431 145.554 44.8714 147.144 48.4342C149.894 54.5968 148.61 58.9982 143.267 61.7299C141.3 62.7355 140.187 62.9774 137.45 62.9926C134.452 63.0092 133.943 62.8828 132.996 61.8845C132.409 61.2652 132.276 61.0141 132.702 61.327C135.362 63.281 139.495 62.7014 142.699 59.9245C146.919 56.2679 147.719 52.6289 145.548 46.9634C144.269 43.6258 144.007 40.2793 144.896 38.6364C145.196 38.0821 146.274 36.5407 147.292 35.211C150.337 31.2328 148.989 29.5783 141.999 28.7185C138.514 28.2893 138.508 28.2861 141.069 28.2381C142.487 28.2113 144.475 28.3784 145.486 28.6091ZM141.718 31.2827C141.012 34.21 139.178 39.5497 138.622 40.2978C138.086 41.0173 137.707 40.6426 135.092 36.8069C133.481 34.4435 132.162 32.1683 132.162 31.7506C132.162 30.8101 134.942 30.1326 139.085 30.0629L142.024 30.0135L141.718 31.2827ZM187.95 34.6217C187.625 35.3956 186.203 37.0682 184.791 38.3387C181.871 40.9661 181.905 41.1918 185.513 43.2736C187.725 44.5502 191.488 44.9531 193.339 44.1122C194.175 43.7319 194.207 43.7698 193.635 44.4625C191.511 47.0322 185.895 46.2144 182.034 42.7729L179.78 40.7639L181.637 39.8991C183.889 38.8496 187.376 35.4233 187.772 33.8699C187.931 33.2482 188.169 32.8463 188.302 32.9769C188.434 33.1075 188.276 33.8477 187.95 34.6217ZM192.628 37.5292C192.632 37.7286 192.228 37.6769 191.729 37.4138C190.649 36.8448 190.292 36.8139 190.292 37.2883C190.292 37.4817 190.766 37.8453 191.346 38.0959C191.984 38.371 192.458 39.036 192.545 39.7758C192.826 42.1651 188.91 43.4213 187.01 41.5513C185.809 40.3684 185.814 40.3241 187.48 37.8592C188.252 36.7169 189.12 35.0827 189.408 34.2276L189.932 32.6732L191.276 34.9198C192.015 36.1557 192.623 37.3298 192.628 37.5292ZM125.455 34.0688C124.009 35.6412 123.13 38.5085 123.094 41.7714C123.054 45.3223 122.444 44.2571 122.364 40.4981C122.299 37.3944 124.232 33.2441 125.744 33.2441C126.002 33.2441 125.872 33.6151 125.455 34.0688ZM169.59 40.2129C170.697 40.2784 168.305 40.9873 166.786 41.0436C165.76 41.0819 165.418 40.7709 164.794 39.2345C163.646 36.4096 163.841 36.2988 166.426 38.3101C167.738 39.3314 169.162 40.1875 169.59 40.2129ZM162.657 41.6666C163.806 44.7749 164.121 44.858 168.349 43.1666C169.935 42.532 171.839 42.0128 172.58 42.0128C174.332 42.0128 176.021 43.6959 176.678 46.0962C177.626 49.5636 176.056 52.0437 174.28 49.8843C173.614 49.0753 173.415 49.0042 173.415 49.5765C173.415 50.596 175.008 52.0788 176.5 52.4471C179.214 53.1181 182.791 49.7242 182.791 46.4784V45.3689L184.98 46.4599C186.546 47.2408 187.957 47.5509 189.938 47.5509C192.373 47.5509 192.873 47.388 194.075 46.2051C194.827 45.4649 195.53 45.0006 195.639 45.1732C195.88 45.5586 196.676 50.158 197.066 53.4324C197.352 55.8313 197.345 55.8484 196.271 55.3661C194.578 54.6069 192.725 55.5355 191.857 57.5786C191.218 59.0859 191.197 60.0085 191.695 64.8502C192.008 67.9003 192.19 71.5379 192.099 72.934L191.932 75.4723L191.105 72.2417C188.406 61.7064 182.675 55.6426 171.672 51.6787C161.49 48.0101 159.548 46.5001 159.638 42.3238C159.666 41.0104 159.952 39.3129 160.274 38.5515C160.944 36.9675 160.897 36.9062 162.657 41.6666ZM157.039 51.8199C158.689 54.0633 158.867 56.7368 157.51 58.9267C157.015 59.7265 154.955 61.7442 152.933 63.4107C148.609 66.9736 146.334 69.7703 144.332 73.9816C141.109 80.7621 142.3 89.3328 147.235 94.8659C150.709 98.761 157.008 99.7593 157.008 96.4147C157.008 95.4266 155.372 95.1973 154.946 96.1249C154.8 96.4424 154.731 96.2864 154.794 95.7788C154.928 94.6919 156.726 94.2816 157.737 95.1077C158.819 95.992 158.536 97.6931 157.125 98.7924C156.065 99.6181 155.438 99.7501 153.592 99.5378C145.584 98.6161 138.856 88.9683 139.829 79.8013C140.509 73.3992 143.501 68.8159 150.507 63.4476C156.318 58.995 157.656 57.2939 157.323 54.7865C157.193 53.8168 156.523 52.1836 155.833 51.1572C154.248 48.7979 155.201 49.3217 157.039 51.8199ZM196.784 57.4429C196.879 57.934 196.564 58.6369 196.085 59.0047C195.315 59.5963 195.31 59.642 196.034 59.396C196.701 59.1699 196.855 59.3882 196.855 60.565C196.855 62.8827 195.84 67.9704 195.462 67.5495C194.941 66.9694 193.859 57.916 194.205 57.0285C194.615 55.9767 196.56 56.2891 196.784 57.4429ZM171.946 62.088C176.628 63.9987 178.312 65.3071 178.729 67.3599C179.379 70.5604 176.766 74.2534 173.144 75.2517C171.444 75.7201 170.723 75.6994 168.971 75.1317C166.565 74.3522 166.337 74.6042 168.031 76.1706C169.735 77.7466 173.955 78.0028 176.571 76.6893C180.833 74.5483 182.996 70.1442 182.72 64.1653C182.558 60.6523 182.581 60.5604 183.423 61.3113C185.708 63.3466 187.487 68.1209 188.183 74.0878C188.636 77.9626 188.171 77.137 187.049 72.0719C186.524 69.7066 185.57 66.7008 184.928 65.3915L183.762 63.0115L184.097 64.8576C185.054 70.1303 184.027 73.941 180.84 76.9487C177.777 79.8386 172.933 80.7695 169.443 79.1395C167.486 78.2252 166.531 77.0068 166.097 74.8714L165.797 73.396L167.79 74.0878C171.682 75.4395 174.794 74.5137 176.699 71.4382C178.925 67.844 177.341 65.1894 171.706 63.0724C168.408 61.8333 165.58 59.6923 164.446 57.5754C164.136 56.9957 164.714 57.3732 165.776 58.4435C167.1 59.7782 168.92 60.853 171.946 62.088ZM164.179 61.2107C165.219 62.3511 167.506 63.9544 169.682 65.0689C174.816 67.6986 175.592 69.6143 172.319 71.5795C170.524 72.6566 168.823 72.7175 167.426 71.7539C166.124 70.8563 166.094 69.6425 167.347 68.5261C168.163 67.7988 168.457 67.7577 169.268 68.2561C170.651 69.1062 170.904 68.5344 169.535 67.6511C166.356 65.6006 162.714 70.8106 164.047 75.5C166.285 83.366 177.423 85.176 183.268 78.6235C184.069 77.7254 184.856 77.1208 185.017 77.2796C185.179 77.4383 185.311 78.8662 185.311 80.4525C185.311 82.7595 185.04 83.827 183.956 85.7866C182.407 88.5884 180.886 89.5484 177.996 89.5484C175.532 89.5484 173.773 88.4694 173.975 87.0807C174.096 86.2416 174.408 86.0967 175.977 86.1484L177.836 86.2098L176.746 85.3408C175.407 84.2738 173.513 84.2248 172.069 85.2203C171.19 85.8263 171.022 86.2878 171.182 87.6432C171.292 88.564 171.47 89.6217 171.578 89.9933C171.732 90.5217 171.023 90.7465 168.321 91.0247C165.266 91.339 164.715 91.273 163.545 90.4534C161.713 89.169 159.883 85.2517 159.103 80.9449C158.227 76.1046 158.235 67.4037 159.117 64.1653C159.498 62.7692 159.812 61.1239 159.815 60.5097C159.818 59.8949 160.187 58.9927 160.636 58.5049C161.411 57.6621 161.475 57.6589 161.925 58.4384C162.185 58.8898 163.2 60.1372 164.179 61.2107ZM120.666 62.3082C121.108 62.7891 122.452 63.6613 123.652 64.247C125.584 65.1898 126.516 65.3121 131.802 65.3154C138.049 65.3191 137.996 65.8037 131.693 66.3081C127.456 66.6468 123.471 65.9195 121.181 64.39L119.529 63.2861L118.994 65.2258C118.42 67.3031 118.696 72.9335 119.463 74.8225L119.914 75.9338L119.944 74.8336C119.998 72.8066 121.074 70.0906 122.359 68.737C124.595 66.3801 128.414 67.2362 129.14 70.2572C129.371 71.2195 129.167 71.771 128.243 72.6802C126.91 73.9927 126.159 74.1307 124.976 73.2801C124.282 72.7808 124.412 72.7032 125.941 72.7032C127.638 72.7032 127.708 72.6405 127.708 71.1382C127.708 69.0398 126.539 68.288 124.774 69.2511C121.739 70.9084 120.833 77.0248 122.963 81.4719C124.249 84.1556 125.315 85.1945 128.96 87.3119C131.446 88.7564 140.574 96.9325 139.701 96.9325C139.481 96.9325 137.537 95.3602 135.38 93.4384C133.223 91.5167 129.983 89.1805 128.179 88.2464C122.951 85.5406 119.381 81.3667 117.169 75.3735C115.645 71.2458 115.932 65.1202 117.834 61.1655L119.167 58.3964L119.515 59.9152C119.706 60.7506 120.225 61.8273 120.666 62.3082ZM112.915 64.1159C113.176 64.5968 113.603 66.8416 113.863 69.1044C114.398 73.7518 115.58 77.5066 117.639 81.0976C118.412 82.4457 118.967 83.5487 118.872 83.5487C118.506 83.5487 115.287 78.4518 113.74 75.4225C112.846 73.6729 111.682 70.8193 111.154 69.0808C110.226 66.0316 110.223 65.9278 111.07 66.1461C111.807 66.3358 111.865 66.2412 111.433 65.5604C110.878 64.6845 111.213 63.2423 111.973 63.2423C112.23 63.2423 112.654 63.6355 112.915 64.1159ZM154.301 67.52C153.461 70.9795 153.678 72.7023 155.594 77.7798C156.632 80.53 156.714 84.1381 155.806 87.13C155.544 87.9926 155.724 88.2543 156.844 88.6383C157.589 88.8939 158.446 89.4934 158.749 89.9706C159.277 90.8023 159.2 90.8143 156.864 90.2646C144.169 87.2777 142.313 78.785 151.884 67.4752C153.459 65.6149 154.817 64.1621 154.903 64.247C154.989 64.3319 154.719 65.8046 154.301 67.52ZM174.15 89.4902C174.855 90.0362 176.271 90.6149 177.296 90.7764L179.162 91.07L178.046 91.9261C174.856 94.3748 167.349 97.6954 163.28 98.4574C161.839 98.7274 161.818 98.7043 161.865 96.9371C161.982 92.5159 155.857 90.7455 153.864 94.625C153.414 95.5019 153.27 95.5798 153.264 94.9503C153.245 92.6368 157.591 90.7557 160.353 91.8818C161.96 92.5371 163.566 94.7597 163.569 96.3307C163.571 97.3368 163.589 97.3391 166.028 96.6256C170.255 95.3902 177.721 91.3944 175.803 91.3944C174.823 91.3944 172.009 88.5137 172.038 87.5389L172.068 86.5485L172.468 87.5233C172.688 88.0591 173.445 88.9442 174.15 89.4902ZM127.899 114.621C126.763 115.211 125.2 116.579 124.427 117.66C123.196 119.38 123.021 120.021 123.021 122.777C123.021 125.542 123.195 126.172 124.447 127.925C126.432 130.707 128.906 131.99 132.298 132C141.193 132.024 145.603 121.84 139.173 116.122C136.807 114.017 135.577 113.547 132.439 113.547C130.754 113.547 129.307 113.889 127.899 114.621ZM138.051 115.875C139.873 117.551 140.6 119.23 140.6 121.759C140.6 124.563 139.11 127.489 136.707 129.404C134.508 131.156 130.388 131.637 127.997 130.42C123.536 128.149 123.183 121.079 127.337 117.181C129.966 114.714 130.687 114.43 133.905 114.594C136.225 114.712 137.071 114.974 138.051 115.875ZM143.413 123.008C143.413 130.831 143.481 131.546 144.233 131.546C144.984 131.546 145.054 130.849 145.054 123.354V115.162L146.4 115.011C149.382 114.675 151.382 115.953 151.382 118.195C151.382 119.851 149.913 121.393 148.335 121.393C147.691 121.393 147.163 121.55 147.163 121.743C147.163 121.935 148.376 123.876 149.859 126.055C151.341 128.234 152.77 130.385 153.035 130.835C153.299 131.285 153.889 131.577 154.346 131.484C155.028 131.345 154.582 130.47 151.845 126.585C149.721 123.569 148.765 121.854 149.208 121.854C149.591 121.854 150.553 121.316 151.346 120.659C153.257 119.076 153.346 116.815 151.553 115.427C150.558 114.655 149.649 114.47 146.865 114.47H143.413V123.008ZM156.07 123.008C156.07 130.29 156.174 131.546 156.773 131.546C157.373 131.546 157.476 130.29 157.476 123.008C157.476 115.726 157.373 114.47 156.773 114.47C156.174 114.47 156.07 115.726 156.07 123.008ZM160.758 123.008V131.546H163.165C166.515 131.546 169.05 130.696 170.396 129.122C172.541 126.611 171.491 123.356 168.167 122.215L166.79 121.742L168.215 120.89C168.999 120.421 169.77 119.526 169.929 118.902C170.67 115.995 168.571 114.47 163.829 114.47H160.758V123.008ZM172.946 123.008V131.546H178.103C180.939 131.546 183.26 131.366 183.26 131.146C183.26 130.926 181.818 130.848 180.055 130.972C175.126 131.319 174.822 131.026 174.822 125.936V121.743L177.634 121.944C179.181 122.053 180.447 121.975 180.447 121.768C180.447 121.562 179.181 121.393 177.634 121.393H174.822V118.112V114.83L178.338 115.005C180.271 115.101 181.853 115.021 181.853 114.825C181.853 114.63 179.849 114.47 177.4 114.47H172.946V123.008ZM167.216 115.65C167.943 116.151 168.259 116.84 168.259 117.924C168.259 119.962 166.492 121.393 163.976 121.393H162.164V118.47C162.164 116.862 162.305 115.408 162.477 115.239C163.064 114.661 166.173 114.93 167.216 115.65ZM167.79 122.913C169.53 123.78 170.205 125.482 169.627 127.545C168.988 129.823 167.511 130.713 164.666 130.534L162.399 130.392L162.263 126.354L162.128 122.316L164.373 122.323C165.608 122.326 167.145 122.592 167.79 122.913Z" fill="white"/>
</g>
<defs>
<filter id="filter0_d_1_126" x="104" y="12" width="98" height="128" filterUnits="userSpaceOnUse" color-interpolation-filters="sRGB">
<feFlood flood-opacity="0" result="BackgroundImageFix"/>
<feColorMatrix in="SourceAlpha" type="matrix" values="0 0 0 0 0 0 0 0 0 0 0 0 0 0 0 0 0 0 127 0" result="hardAlpha"/>
<feOffset dy="4"/>
<feGaussianBlur stdDeviation="2"/>
<feComposite in2="hardAlpha" operator="out"/>
<feColorMatrix type="matrix" values="0 0 0 0 0 0 0 0 0 0 0 0 0 0 0 0 0 0 0.25 0"/>
<feBlend mode="normal" in2="BackgroundImageFix" result="effect1_dropShadow_1_126"/>
<feBlend mode="normal" in="SourceGraphic" in2="effect1_dropShadow_1_126" result="shape"/>
</filter>
</defs>
</svg>
