<svg width="306" height="144" viewBox="0 0 306 144" fill="none" xmlns="http://www.w3.org/2000/svg">
<g opacity="0.5">
<path fill-rule="evenodd" clip-rule="evenodd" d="M144.332 23.2286C142.19 23.5798 138.42 24.7813 136.784 25.6347L135.728 26.1856L138.349 26.3373C144.749 26.7078 150.497 28.5271 155.19 31.6678L156.824 32.762L160.821 32.845C164.263 32.9166 165.094 33.0125 166.821 33.5387C167.923 33.8748 168.863 34.1871 168.908 34.2327C168.954 34.2784 166.896 34.3159 164.335 34.3159C161.774 34.3159 159.597 34.3977 159.496 34.4977C159.396 34.5977 159.793 35.0744 160.379 35.5571C162.422 37.24 165.879 40.8959 167.535 43.1267C170.431 47.0254 172.497 51.0849 173.512 54.8694C173.742 55.7288 174.005 56.5187 174.095 56.6249C174.186 56.7309 174.452 55.8655 174.686 54.7018C175.238 51.9633 175.248 47.5223 174.709 44.6835C172.709 34.1457 164.459 25.7022 153.979 23.4678C151.611 22.963 146.697 22.8411 144.332 23.2286ZM134.753 27.8968C133.653 29.1095 131.737 34.4277 131.208 37.7372C130.837 40.0509 130.907 45.2895 131.342 47.7778C131.879 50.8515 133.165 54.502 134.87 57.7952C136.573 61.0825 137.033 61.6491 136.746 60.1022C136.275 57.5709 136.216 53.5549 136.611 50.8738C137.855 42.4219 142.428 36.6665 149.763 34.32C150.491 34.0868 151.176 33.8159 151.284 33.7178C151.593 33.437 148.461 31.3339 145.506 29.8377C142.437 28.284 139.44 27.4648 136.824 27.4648C135.514 27.4648 135.059 27.5597 134.753 27.8968ZM130.957 29.4821C126.964 32.9142 123.918 37.8977 122.532 43.2676C121.897 45.7275 121.662 50.5433 122.048 53.1787C123.13 60.564 127.087 67.0918 133.014 71.2674C134.519 72.3278 137.7 74.1007 138.097 74.1007C138.179 74.1007 137.776 73.5511 137.2 72.8797C133.504 68.5654 130.369 63.2749 128.95 58.956C125.909 49.7024 126.916 39.2261 131.717 30.1692C132.366 28.9463 132.862 27.9456 132.821 27.9456C132.78 27.9456 131.941 28.6372 130.957 29.4821ZM152.412 36.5681C150.138 37.2946 147.554 38.8115 145.837 40.4274C143.952 42.2012 142.534 44.7943 142.037 47.374C141.613 49.5803 141.889 53.9412 142.647 56.9961C143.83 61.7667 146.831 68.42 150.093 73.4997L151.636 75.9036L152.686 75.8368C153.264 75.8002 154.496 75.5639 155.423 75.3117C159.74 74.1381 163.498 72.0181 166.902 68.8354L169.062 66.8151L168.913 65.2295C167.97 55.2215 164.666 47.4619 158.064 39.7524C155.847 37.1629 154.679 36.1071 154.061 36.1318C153.883 36.1388 153.141 36.3352 152.412 36.5681ZM71.7236 102.031C67.0208 108.529 62.0091 115.45 60.5866 117.411L58 120.977H59.6697H61.3391L65.7485 114.847L70.158 108.717H75.1518L80.1456 108.717L80.2099 114.787L80.2742 120.857L81.7812 120.928L83.2886 121L83.2264 105.664L83.1645 90.327L81.7193 90.2715L80.2742 90.2162L71.7236 102.031ZM208.533 102.842C208.533 110.932 208.449 115.425 208.3 115.332C208.171 115.253 203.341 109.622 197.565 102.818L187.063 90.4473H185.755H184.447V105.592V120.737H186.01H187.574L187.636 108.198L187.699 95.6606L191.466 100.085C193.537 102.519 198.338 108.161 202.132 112.623L209.032 120.737H210.385H211.738L211.582 118.032C211.496 116.545 211.425 109.676 211.425 102.767L211.423 90.2069H209.978H208.533V102.842ZM215.759 105.472V120.737H217.325H218.89V114.727V108.717H223.901H228.911L233.234 114.712L237.557 120.708L239.203 120.722C240.108 120.73 240.813 120.641 240.768 120.524C240.724 120.407 235.756 113.542 229.729 105.269L218.77 90.2266L217.264 90.2167L215.759 90.2069V105.472ZM87.3796 105.712V120.977L96.9538 120.968L106.528 120.958L107.371 119.831C107.835 119.211 108.25 118.621 108.294 118.518C108.339 118.416 104.355 118.333 99.4427 118.333H90.5108V104.39V90.4473H88.9452H87.3796V105.712ZM102.244 91.643C101.752 92.3007 101.35 92.8956 101.35 92.9651C101.35 93.0346 104.005 93.0916 107.251 93.0916H113.152V107.046V121L114.657 120.928L116.163 120.857L116.065 106.974L115.967 93.0916H121.132H126.296L127.191 91.8958C127.683 91.2381 128.085 90.6432 128.085 90.5737C128.085 90.5042 122.472 90.4473 115.612 90.4473H103.138L102.244 91.643ZM131.267 100.123C131.301 105.445 131.361 112.26 131.402 115.268L131.475 120.737H141.439H151.403L152.25 119.595L153.098 118.453L143.723 118.39L134.348 118.327V112.801V107.275H142.486H150.623L151.518 106.079C152.01 105.421 152.412 104.826 152.412 104.757C152.412 104.687 148.348 104.63 143.38 104.63H134.348V98.8609V93.0916H142.606H150.864L151.759 91.8958C152.251 91.2381 152.653 90.6432 152.653 90.5737C152.653 90.5042 147.828 90.4473 141.93 90.4473H131.206L131.267 100.123ZM157.229 105.577V120.737H158.795H160.361V113.985V107.233L164.275 107.316C168.858 107.413 169.184 107.527 170.851 109.626C171.452 110.382 173.321 113.191 175.004 115.868L178.064 120.736L179.838 120.736L181.612 120.737L181.257 120.196C181.062 119.898 179.357 117.245 177.469 114.3C175.266 110.865 173.564 108.486 172.721 107.665L171.407 106.384L172.647 106.237C175.398 105.912 177.79 104.167 179.08 101.544C179.65 100.385 179.748 99.8946 179.736 98.2366C179.725 96.6188 179.611 96.0625 179.06 94.9399C178.25 93.2863 176.663 91.8478 174.848 91.1199C173.544 90.597 173.152 90.5713 165.359 90.4963L157.229 90.4182V105.577ZM173.976 93.8127C175.157 94.4043 175.853 94.9399 176.322 95.6171C177.133 96.7878 177.412 98.6357 176.978 99.9494C176.552 101.237 174.963 102.86 173.256 103.751L171.802 104.51L166.081 104.586L160.361 104.662V98.735V92.8081L166.329 92.8896L172.296 92.9714L173.976 93.8127ZM222.864 100.342C224.984 103.268 226.754 105.754 226.798 105.867C226.843 105.98 225.081 106.073 222.884 106.073H218.89L218.889 103.248C218.888 101.695 218.818 99.2066 218.732 97.7191C218.642 96.1546 218.667 95.0164 218.793 95.0185C218.913 95.0207 220.745 97.4162 222.864 100.342ZM80.1537 100.664V106.073H76.1795C73.9937 106.073 72.2053 106.009 72.2053 105.932C72.2053 105.751 79.9213 95.2551 80.0543 95.2551C80.1089 95.2551 80.1537 97.689 80.1537 100.664ZM243.543 115.671C242.672 116.201 242.139 117.503 242.367 118.54C242.45 118.918 242.845 119.539 243.245 119.921C243.848 120.499 244.176 120.616 245.178 120.616C246.265 120.616 246.468 120.526 247.21 119.718C248.412 118.409 248.222 116.592 246.778 115.583C246.044 115.07 244.46 115.113 243.543 115.671ZM246.384 115.948C247.145 116.354 247.576 117.625 247.297 118.636C246.849 120.256 245.054 120.756 243.717 119.633C243.094 119.11 242.976 118.841 242.976 117.94C242.976 117.123 243.117 116.728 243.568 116.278C244.212 115.635 245.513 115.483 246.384 115.948ZM244.181 117.958C244.181 118.849 244.285 119.535 244.421 119.535C244.554 119.535 244.662 119.21 244.662 118.813C244.662 118.417 244.765 118.092 244.889 118.092C245.014 118.092 245.309 118.417 245.544 118.813C245.778 119.21 246.055 119.535 246.16 119.535C246.447 119.535 246.386 119.215 245.99 118.651C245.672 118.198 245.674 118.125 246.007 117.998C246.249 117.905 246.354 117.622 246.304 117.192C246.236 116.599 246.121 116.522 245.204 116.456L244.181 116.382V117.958ZM245.789 117.035C245.939 117.424 245.515 117.841 244.963 117.848C244.798 117.85 244.662 117.581 244.662 117.251C244.662 116.807 244.79 116.65 245.152 116.65C245.421 116.65 245.707 116.823 245.789 117.035Z" fill="white"/>
</g>
</svg>
